
<svg xmlns="http://www.w3.org/2000/svg" xmlns:xlink="http://www.w3.org/1999/xlink" version="1.1" width="1000" height="1000" viewBox="0 0 1000 1000" xml:space="preserve">
  <desc>Created with Fabric.js 3.5.0</desc>
  <defs>
  </defs>
  <rect x="0" y="0" width="100%" height="100%" fill="#ffffff"/>
  <g transform="matrix(1.1509 0 0 4.8873 499.9839 697.585)" id="244396">
  <linearGradient id="SVGID_2" x1="100%" y1="100%" x2="0%" y2="0%">
    <stop offset="20%" stop-color="#0077B6" stop-opacity = "1"/>
    <stop offset="100%" stop-color="#03045E" stop-opacity = "1"/>
  </linearGradient>
  <path style="stroke: none; stroke-width: 0; stroke-dasharray: none; stroke-linecap: round; stroke-dashoffset: 0; stroke-linejoin: miter; stroke-miterlimit: 4; is-custom-font: none; font-file-url: none; fill: url(#SVGID_2); fill-rule: nonzero; opacity: 1;" vector-effect="non-scaling-stroke" transform=" translate(-450, -145.7594)" d="M 0 254 L 50 240.5 C 100 227 200 200 300 211.5 C 400 223 500 273 600 287 C 700 301 800 279 850 268 L 900 257 L 900 0 L 850 0 C 800 0 700 0 600 0 C 500 0 400 0 300 0 C 200 0 100 0 50 0 L 0 0 Z" stroke-linecap="round"/>
  </g>
  </svg>